<?xml version="1.0" encoding="utf-8"?>
<!-- Generator: Adobe Illustrator 16.0.0, SVG Export Plug-In . SVG Version: 6.00 Build 0)  -->
<!DOCTYPE svg PUBLIC "-//W3C//DTD SVG 1.1//EN" "http://www.w3.org/Graphics/SVG/1.1/DTD/svg11.dtd">
<svg version="1.1" id="Layer_1" xmlns="http://www.w3.org/2000/svg" xmlns:xlink="http://www.w3.org/1999/xlink" x="0px" y="0px"
	 width="496px" height="76px" viewBox="0 0 496 76" enable-background="new 0 0 496 76" xml:space="preserve">
<path fill="#147BAA" d="M92.24,57.725l7.777-9.289c4.968,3.961,10.513,6.049,16.345,6.049c3.745,0,5.761-1.296,5.761-3.456v-0.144
	c0-2.089-1.656-3.24-8.497-4.825c-10.729-2.448-19.009-5.472-19.009-15.841v-0.144c0-9.361,7.417-16.129,19.514-16.129
	c8.569,0,15.265,2.304,20.738,6.697l-6.985,9.865c-4.608-3.24-9.649-4.968-14.113-4.968c-3.384,0-5.04,1.44-5.04,3.24v0.144
	c0,2.304,1.728,3.312,8.712,4.896c11.593,2.52,18.794,6.264,18.794,15.697v0.145c0,10.297-8.137,16.418-20.378,16.418
	C106.93,66.078,98.433,63.27,92.24,57.725z"/>
<path fill="#147BAA" d="M139.616,12.649h13.681v52.564h-13.681V12.649z"/>
<rect x="158.047" y="12.649" fill="#20B5E4" width="14.257" height="10.081"/>
<rect x="68.222" y="12.649" fill="#20B5E4" width="14.257" height="10.081"/>
<rect x="68.222" y="26.365" fill="#20B5E4" width="14.257" height="10.081"/>
<rect x="68.222" y="40.066" fill="#20B5E4" width="14.257" height="10.081"/>
<rect x="68.222" y="53.783" fill="#20B5E4" width="14.257" height="10.08"/>
<rect x="50.472" y="12.649" fill="#20B5E4" width="14.257" height="10.081"/>
<rect x="50.472" y="26.365" fill="#20B5E4" width="14.257" height="10.081"/>
<rect x="50.472" y="40.066" fill="#20B5E4" width="14.257" height="10.081"/>
<rect x="50.472" y="53.783" fill="#20B5E4" width="14.257" height="10.08"/>
<rect x="32.722" y="12.649" fill="#20B5E4" width="14.257" height="10.081"/>
<rect x="32.722" y="26.365" fill="#20B5E4" width="14.257" height="10.081"/>
<rect x="32.722" y="40.066" fill="#20B5E4" width="14.257" height="10.081"/>
<rect x="32.722" y="53.783" fill="#20B5E4" width="14.257" height="10.08"/>
<rect x="14.972" y="12.649" fill="#20B5E4" width="14.257" height="10.081"/>
<rect x="14.972" y="26.365" fill="#20B5E4" width="14.257" height="10.081"/>
<rect x="14.972" y="40.066" fill="#20B5E4" width="14.257" height="10.081"/>
<rect x="14.972" y="53.783" fill="#20B5E4" width="14.257" height="10.08"/>
<rect x="158.335" y="26.258" fill="#147BAA" width="13.681" height="38.955"/>
<path fill="#147BAA" d="M175.326,45.916v-0.145c0-12.673,7.92-20.377,17.137-20.377c5.905,0,9.361,2.664,11.953,5.616V12.649h13.681
	v52.564h-13.681v-5.184c-2.664,3.24-6.048,6.049-11.881,6.049C183.319,66.078,175.326,58.373,175.326,45.916z M204.632,45.771
	v-0.144c0-5.112-3.528-8.785-7.92-8.785c-4.393,0-7.993,3.601-7.993,8.785v0.144c0,5.185,3.6,8.857,7.993,8.857
	C201.104,54.629,204.632,50.956,204.632,45.771z"/>
<path fill="#147BAA" d="M220.974,45.916v-0.145c0-11.377,8.137-20.377,19.658-20.377c13.464,0,19.658,9.865,19.658,21.314
	c0,0.864,0,1.872-0.072,2.808H234.15c1.08,4.248,4.177,6.409,8.425,6.409c3.24,0,5.833-1.224,8.641-3.96l7.562,6.264
	c-3.745,4.752-9.146,7.921-16.922,7.921C229.614,66.149,220.974,58.013,220.974,45.916z M247.472,42.531
	c-0.504-4.32-3.024-7.057-6.769-7.057c-3.6,0-6.048,2.809-6.769,7.057H247.472z"/>
<path fill="#20B5E4" d="M264.461,40.155v-0.144c0-14.258,10.657-26.067,25.49-26.067c9.145,0,14.617,3.24,19.658,7.993l-3.889,4.176
	c-4.248-4.032-9-6.913-15.842-6.913c-11.16,0-19.514,9.073-19.514,20.666v0.145c0,11.664,8.426,20.809,19.514,20.809
	c6.913,0,11.449-2.664,16.273-7.271l3.745,3.672c-5.257,5.328-11.017,8.857-20.162,8.857
	C275.19,66.078,264.461,54.629,264.461,40.155z"/>
<path fill="#20B5E4" d="M311.549,46.708v-0.144c0-10.729,7.561-19.37,17.857-19.37c11.018,0,17.354,8.785,17.354,19.657
	c0,0.721,0,1.152-0.072,1.801h-29.521c0.791,8.064,6.48,12.601,13.104,12.601c5.112,0,8.713-2.088,11.737-5.257l3.456,3.097
	c-3.744,4.177-8.28,6.985-15.337,6.985C319.902,66.078,311.549,58.229,311.549,46.708z M341.144,44.547
	c-0.576-6.768-4.464-12.672-11.881-12.672c-6.481,0-11.377,5.4-12.097,12.672H341.144z"/>
<path fill="#20B5E4" d="M352.156,27.986h5.545v6.48c2.447-4.032,6.336-7.272,12.744-7.272c9.002,0,14.258,6.048,14.258,14.905
	v23.113h-5.545V43.467c0-6.912-3.744-11.232-10.297-11.232c-6.408,0-11.16,4.681-11.16,11.665v21.313h-5.545V27.986z"/>
<path fill="#20B5E4" d="M394.133,55.349V32.883h-5.185v-4.896h5.185V16.753h5.545v11.233h11.809v4.896h-11.809v21.746
	c0,4.536,2.52,6.191,6.264,6.191c1.873,0,3.457-0.359,5.4-1.295v4.752c-1.943,1.008-4.031,1.584-6.696,1.584
	C398.669,65.861,394.133,62.909,394.133,55.349z"/>
<path fill="#20B5E4" d="M416.956,27.986h5.544v9.721c2.736-6.192,8.137-10.657,15.193-10.369v5.977h-0.432
	c-8.137,0-14.762,5.833-14.762,17.065v14.833h-5.544V27.986z"/>
<path fill="#20B5E4" d="M437.188,54.412v-0.144c0-7.849,6.48-12.025,15.914-12.025c4.752,0,8.137,0.648,11.449,1.585v-1.297
	c0-6.696-4.105-10.153-11.09-10.153c-4.393,0-7.848,1.152-11.305,2.736l-1.656-4.536c4.104-1.873,8.137-3.097,13.537-3.097
	c5.257,0,9.289,1.368,12.025,4.104c2.52,2.52,3.816,6.121,3.816,10.873v22.754h-5.328v-5.616c-2.593,3.384-6.913,6.409-13.466,6.409
	C444.173,66.006,437.188,62.045,437.188,54.412z M464.623,51.532v-3.601c-2.736-0.792-6.409-1.584-10.945-1.584
	c-6.984,0-10.873,3.024-10.873,7.705v0.144c0,4.681,4.32,7.417,9.361,7.417C459.006,61.613,464.623,57.437,464.623,51.532z"/>
<path fill="#20B5E4" d="M477.868,12.649h5.544v52.564h-5.544V12.649z"/>
</svg>
